<svg width="29" height="25" viewBox="0 0 29 25" fill="none" xmlns="http://www.w3.org/2000/svg">
<path d="M10.8754 19.9825C9.61762 19.9825 8.59436 21.0231 8.59436 22.3022C8.59436 23.5813 9.61762 24.6219 10.8754 24.6219C12.1331 24.6219 13.1564 23.5813 13.1564 22.3022C13.1563 21.0231 12.1331 19.9825 10.8754 19.9825ZM10.8754 23.3266C10.3199 23.3266 9.86796 22.8669 9.86796 22.3021C9.86796 21.7372 10.3199 21.2776 10.8754 21.2776C11.4308 21.2776 11.8828 21.7372 11.8828 22.3021C11.8828 22.867 11.4308 23.3266 10.8754 23.3266Z" fill="black"/>
<path d="M18.8764 19.9825C17.6186 19.9825 16.5953 21.0231 16.5953 22.3022C16.5953 23.5813 17.6186 24.6219 18.8764 24.6219C20.1342 24.6219 21.1575 23.5813 21.1575 22.3022C21.1574 21.0231 20.1341 19.9825 18.8764 19.9825ZM18.8764 23.3266C18.3209 23.3266 17.869 22.8669 17.869 22.3021C17.869 21.7372 18.3209 21.2776 18.8764 21.2776C19.4319 21.2776 19.8838 21.7372 19.8838 22.3021C19.8838 22.867 19.4319 23.3266 18.8764 23.3266Z" fill="black"/>
<path d="M19.438 7.76953H10.3122C9.96051 7.76953 9.67542 8.05946 9.67542 8.41713C9.67542 8.7748 9.96056 9.06473 10.3122 9.06473H19.438C19.7897 9.06473 20.0748 8.7748 20.0748 8.41713C20.0748 8.05941 19.7897 7.76953 19.438 7.76953Z" fill="black"/>
<path d="M18.9414 11.1324H10.8089C10.4572 11.1324 10.1721 11.4224 10.1721 11.7801C10.1721 12.1377 10.4572 12.4277 10.8089 12.4277H18.9413C19.293 12.4277 19.5781 12.1377 19.5781 11.7801C19.5781 11.4224 19.293 11.1324 18.9414 11.1324Z" fill="black"/>
<path d="M25.6499 4.88407C25.407 4.58095 25.0472 4.40714 24.6626 4.40714H4.82655L4.42595 2.4295C4.34232 2.01697 4.06563 1.67058 3.68565 1.50279L0.890528 0.268993C0.567841 0.12645 0.192825 0.27703 0.0528584 0.605081C-0.0872597 0.933235 0.0608116 1.31466 0.383347 1.45699L3.17852 2.69084L6.2598 17.9014C6.38117 18.5004 6.90578 18.9352 7.50723 18.9352H22.7635C23.1152 18.9352 23.4003 18.6453 23.4003 18.2876C23.4003 17.9299 23.1152 17.64 22.7635 17.64H7.50728L7.13247 15.7898H22.8814C23.4828 15.7898 24.0075 15.355 24.1288 14.7559L25.9101 5.96352C25.9876 5.58066 25.8928 5.18713 25.6499 4.88407ZM22.8814 14.4947H6.87012L5.08895 5.70229L24.6626 5.70234L22.8814 14.4947Z" fill="black"/>
<circle cx="25" cy="4.89026" r="4" fill="#BCE7F0"/>
</svg>
